<svg width="43" height="54" viewBox="0 0 43 54" fill="none" xmlns="http://www.w3.org/2000/svg">
<path d="M23.2767 33.6055C13.5569 32.5519 12.8623 25.5991 14.1398 20.357C14.4333 19.1528 13.2874 18.1622 12.3795 19.0059C7.64469 23.4061 4.23889 32.2434 3.17078 36.2236C3.07915 36.5651 3.13592 36.9268 3.32717 37.2242C7.28574 43.3793 13.9639 45.375 17.6993 45.7003C18.3284 45.7551 18.9062 46.1983 18.83 46.8252C18.4906 49.618 14.6112 52.0155 12.4812 52.9474C22.8922 55.2983 28.3667 49.4738 30.1478 45.639C30.3675 45.166 30.8071 44.8241 31.3231 44.7475C38.183 43.7297 42.1096 38.6256 42.6939 35.7002C42.7216 35.5616 42.7198 35.42 42.6911 35.2816C41.9296 31.6154 37.482 29.2877 34.999 28.4668C34.4519 28.2859 33.8795 28.545 33.5433 29.0129C30.8121 32.8153 26.6493 33.6055 23.2767 33.6055Z" fill="url(#paint0_linear_0_387)"/>
<path d="M30.6663 18.2933C29.6264 17.4793 28.5429 16.7384 27.6993 16.1741C27.237 15.8647 26.894 15.414 26.6312 14.9237C24.2809 10.5392 17.2999 8.56088 11.7177 7.36548C9.52034 6.89495 8.90294 4.23057 10.8639 3.13321C24.2389 -4.35141 36.0265 3.19147 40.8738 8.92968C41.6919 9.89809 41.5303 11.3047 40.6339 12.2011L34.6665 18.1685C33.5997 19.2353 31.8543 19.2234 30.6663 18.2933Z" fill="url(#paint1_linear_0_387)"/>
<path d="M28.2261 16.5128C20.6693 11.8348 15.7814 16.9626 14.282 20.1113C7.085 24.0696 4.38621 32.751 3.03673 36.7543C-4.87994 18.402 4.5361 6.91681 10.2337 3.46826C22.4686 5.26751 27.3265 12.9143 28.2261 16.5128Z" fill="url(#paint2_linear_0_387)"/>
<circle cx="17.542" cy="38.5985" r="2.24905" fill="white"/>
<circle cx="23.8389" cy="38.5985" r="2.24905" fill="white"/>
<circle cx="30.1377" cy="38.5985" r="2.24905" fill="white"/>
<defs>
<linearGradient id="paint0_linear_0_387" x1="20.1914" y1="41.8938" x2="-35.6073" y2="-76.4965" gradientUnits="userSpaceOnUse">
<stop stop-color="#EF6267"/>
<stop offset="1"/>
</linearGradient>
<linearGradient id="paint1_linear_0_387" x1="35.8723" y1="7.51658" x2="-50.4914" y2="142.01" gradientUnits="userSpaceOnUse">
<stop stop-color="#FF8387"/>
<stop offset="1" stop-opacity="0"/>
</linearGradient>
<linearGradient id="paint2_linear_0_387" x1="11.5832" y1="7.96637" x2="57.4639" y2="76.7875" gradientUnits="userSpaceOnUse">
<stop stop-color="#FB5F65"/>
<stop offset="1"/>
</linearGradient>
</defs>
</svg>
